# xmcd CD database file
#
# Track frame offsets:
#	150
#	44423
#	104793
#	167926
#	213072
#	264465
#
# Disc length: 4418 seconds
#
# Revision: 0
# Processed by: cddbd v1.5.1PL0 Copyright (c) Steve Scherf et al.
# Submitted via: CDex 1.51
#
DISCID=54114006
DTITLE=Michiel Borstlap - Liveline
DYEAR=2000
DGENRE=Jazz
TTITLE0=Wisdom
TTITLE1=Liveline
TTITLE2=Centurion
TTITLE3=Bradshaw
TTITLE4=Footprints
TTITLE5=Wisdom (Radio-Edit)
EXTD=YEAR: 2000
EXTT0=
EXTT1=
EXTT2=
EXTT3=
EXTT4=
EXTT5=
PLAYORDER=
